<svg width="163" height="298" viewBox="0 0 163 298" fill="none" xmlns="http://www.w3.org/2000/svg">
<path fill-rule="evenodd" clip-rule="evenodd" d="M-0.389709 -8.21118H162.934V193.466H-0.389709V-8.21118Z" fill="#4AF6CD"/>
<path d="M58.5219 156.82C58.5219 153.66 58.9819 150.88 59.9019 148.48C60.8219 146.04 62.2019 143.86 64.0419 141.94L69.9219 146.92C67.6419 149.8 66.5019 152.82 66.5019 155.98C66.5019 157.62 66.8219 158.88 67.4619 159.76C68.0619 160.6 68.9219 161.02 70.0419 161.02C70.8419 161.02 71.5019 160.8 72.0219 160.36C72.5419 159.92 73.0419 159.18 73.5219 158.14C74.0019 157.1 74.6019 155.46 75.3219 153.22C76.6819 148.94 78.4019 145.82 80.4819 143.86C82.5219 141.86 85.3619 140.86 89.0019 140.86C91.6419 140.86 93.9819 141.54 96.0219 142.9C98.0219 144.26 99.5819 146.24 100.702 148.84C101.822 151.4 102.382 154.42 102.382 157.9C102.382 164.54 100.362 169.96 96.3219 174.16L90.2619 168.7C92.9819 165.38 94.3419 161.92 94.3419 158.32C94.3419 156.44 93.9419 154.98 93.1419 153.94C92.3019 152.9 91.2019 152.38 89.8419 152.38C88.8819 152.38 88.1019 152.58 87.5019 152.98C86.8619 153.38 86.3019 154.1 85.8219 155.14C85.3019 156.14 84.7419 157.62 84.1419 159.58C82.6619 164.3 80.8819 167.62 78.8019 169.54C76.7219 171.46 74.1019 172.42 70.9419 172.42C68.4619 172.42 66.2819 171.76 64.4019 170.44C62.5219 169.08 61.0819 167.22 60.0819 164.86C59.0419 162.46 58.5219 159.78 58.5219 156.82ZM87.3219 103.415C90.2019 103.415 92.7819 104.055 95.0619 105.335C97.3419 106.575 99.1419 108.455 100.462 110.975C101.742 113.495 102.382 116.575 102.382 120.215C102.382 125.735 101.042 129.915 98.3619 132.755C95.6419 135.595 91.9619 137.015 87.3219 137.015H59.6019V125.915H86.9619C89.4819 125.915 91.3419 125.475 92.5419 124.595C93.7019 123.675 94.2819 122.215 94.2819 120.215C94.2819 118.215 93.6819 116.775 92.4819 115.895C91.2819 115.015 89.4419 114.575 86.9619 114.575H59.6019V103.415H87.3219ZM85.9419 83.4072V86.4673H101.302V97.5673H59.6019L59.6019 83.1072C59.6019 77.2272 60.6619 72.8472 62.7819 69.9673C64.9019 67.0473 68.1619 65.5873 72.5619 65.5873C75.2019 65.5873 77.4019 66.2072 79.1619 67.4472C80.9219 68.6472 82.5019 70.5872 83.9019 73.2672L101.302 62.8872V75.2472L85.9419 83.4072ZM78.3819 86.4673V82.7472C78.3819 78.9072 76.4419 76.9873 72.5619 76.9873C70.7619 76.9873 69.4419 77.5273 68.6019 78.6073C67.7619 79.6473 67.3419 81.2273 67.3419 83.3473V86.4673H78.3819ZM101.302 60.3602H59.6019V34.7402L67.4619 35.8802V49.2602H77.4819V37.5002H85.3419V49.2602H101.302V60.3602Z" fill="white"/>
<path d="M58.5219 275.92C58.5219 270.36 60.2819 265.58 63.8019 261.58L69.5019 267.04C68.4219 268.56 67.6419 269.94 67.1619 271.18C66.6419 272.38 66.3819 273.76 66.3819 275.32C66.3819 278.32 67.5419 280.68 69.8619 282.4C72.1819 284.08 75.7219 284.92 80.4819 284.92C83.9619 284.92 86.7219 284.64 88.7619 284.08C90.7619 283.52 92.2019 282.68 93.0819 281.56C93.9619 280.4 94.4019 278.92 94.4019 277.12C94.4019 275.32 94.0219 273.68 93.2619 272.2H84.6819V276.94L77.0619 278.02V261.46H97.8219C99.2619 263.62 100.382 266.06 101.182 268.78C101.982 271.5 102.382 274.18 102.382 276.82C102.382 289.86 95.0619 296.38 80.4219 296.38C75.8619 296.38 71.9419 295.5 68.6619 293.74C65.3419 291.94 62.8219 289.5 61.1019 286.42C59.3819 283.34 58.5219 279.84 58.5219 275.92ZM58.5219 238.335C58.5219 232.295 60.4419 227.595 64.2819 224.235C68.1219 220.875 73.5019 219.195 80.4219 219.195C84.9419 219.195 88.8619 219.955 92.1819 221.475C95.4619 222.955 97.9819 225.135 99.7419 228.015C101.502 230.895 102.382 234.335 102.382 238.335C102.382 244.375 100.462 249.075 96.6219 252.435C92.7819 255.755 87.3819 257.415 80.4219 257.415C75.9019 257.415 72.0019 256.675 68.7219 255.195C65.4419 253.675 62.9219 251.495 61.1619 248.655C59.4019 245.775 58.5219 242.335 58.5219 238.335ZM66.5019 238.335C66.5019 240.935 67.5819 242.855 69.7419 244.095C71.9019 245.295 75.4619 245.895 80.4219 245.895C85.3819 245.895 88.9619 245.275 91.1619 244.035C93.3219 242.795 94.4019 240.895 94.4019 238.335C94.4019 235.695 93.3219 233.775 91.1619 232.575C89.0019 231.375 85.4219 230.775 80.4219 230.775C75.4619 230.775 71.9019 231.375 69.7419 232.575C67.5819 233.775 66.5019 235.695 66.5019 238.335Z" fill="white"/>
<rect x="80.2998" y="204.025" width="21.118" height="0.972163" transform="rotate(-90 80.2998 204.025)" fill="white"/>
</svg>
